HIERARCHY
ROOT Hips
{
	OFFSET 0.000000 0.000000 0.000000 
	CHANNELS 6 Xposition Yposition Zposition Yrotation Zrotation Xrotation 
	JOINT Lumbar
	{
		OFFSET 0.000000 0.000000 0.000000 
		CHANNELS 3 Zrotation Xrotation Yrotation
		JOINT Neck
		{
			OFFSET 0.000000 0.445665 0.000000 
			CHANNELS 3 Zrotation Xrotation Yrotation
			End Site
			{
				OFFSET 0.000000 0.227535 0.000000 
			}
		}
		JOINT RightShoulder
		{
			OFFSET 0.019635 0.377685 0.194865 
			CHANNELS 3 Zrotation Xrotation Yrotation
			JOINT RightElbow
			{
				OFFSET 0.000000 -0.243375 0.000000 
				CHANNELS 2 Zrotation Yrotation
				JOINT RightWrist
				{
					OFFSET 0.000000 -0.264825 0.000000 
					CHANNELS 2 Zrotation Xrotation
					End Site
					{
						OFFSET 0.006600 -0.176220 0.000990 
					}
				}
			}
		}
		JOINT LeftShoulder
		{
			OFFSET 0.019635 0.377685 -0.194865 
			CHANNELS 3 Zrotation Xrotation Yrotation
			JOINT LeftElbow
			{
				OFFSET 0.000000 -0.243375 0.000000 
				CHANNELS 2 Zrotation Yrotation
				JOINT LeftWrist
				{
					OFFSET 0.000000 -0.264825 0.000000 
					CHANNELS 2 Zrotation Xrotation
					End Site
					{
						OFFSET 0.006600 -0.176220 -0.000990 
					}
				}
			}
		}
	}
	JOINT RightHip
	{
		OFFSET 0.052140 -0.069960 0.075570 
		CHANNELS 3 Zrotation Xrotation Yrotation
		JOINT RightKnee
		{
			OFFSET 0.000000 -0.402270 0.000000 
			CHANNELS 1 Zrotation
			JOINT RightAnkle
			{
				OFFSET 0.000000 -0.404085 0.000000 
				CHANNELS 3 Zrotation Xrotation Yrotation
				End Site
				{
					OFFSET 0.204105 -0.089430 0.008415 
				}
			}
		}
	}
	JOINT LeftHip
	{
		OFFSET 0.052140 -0.069960 -0.075570 
		CHANNELS 3 Zrotation Xrotation Yrotation
		JOINT LeftKnee
		{
			OFFSET 0.000000 -0.402270 0.000000 
			CHANNELS 1 Zrotation
			JOINT LeftAnkle
			{
				OFFSET 0.000000 -0.404085 0.000000 
				CHANNELS 3 Zrotation Xrotation Yrotation
				End Site
				{
					OFFSET 0.204105 -0.089430 -0.008415 
				}
			}
		}
	}
}
MOTION
Frames: 11
Frame Time: 0.02
-0.68025 0.94903 -0.03792 268.31349 0 -4.57398 -29.20417 6.28038 4.34163 -19.65897 -2.04473 0.51631 52.31062 -21.08626 38.81671 34.58056 21.24652 45.56528 -12.26892 52.80628 21.42631 -51.46922 40.02262 -136.9531 -60.42431 10.04717 -8.00845 10.9449 0.39867 4.90371 -3.38976 -4.00673 -13.09526 -12.30305 11.53797 18.77507 -0.21741 0.71348 5.06943 12.75613
-0.68042 0.94916 -0.03704 268.43025 0 -4.41865 -30.03636 6.18642 4.16251 -19.57387 -2.08508 0.6861 52.32987 -21.25148 38.92263 34.7435 21.04356 45.96877 -12.29208 52.56514 21.42341 -51.38591 40.09968 -136.9486 -60.48248 10.04256 -8.11375 10.8162 0.34386 4.99907 -3.34935 -4.00266 -13.16192 -12.4342 11.44072 17.76043 -0.01346 0.48546 4.90922 13.42743
-0.68055 0.94924 -0.03603 268.5483 0 -4.26428 -30.82831 6.11622 3.92425 -19.55384 -2.17584 0.8878 52.43447 -21.35332 39.01112 34.83947 20.9505 46.28592 -12.2926 52.43415 21.4118 -51.32361 40.12614 -136.94049 -60.4508 10.04032 -8.21882 10.68521 0.2994 5.07594 -3.28347 -4.00288 -13.23944 -12.5618 11.36537 16.49181 0.15224 0.26639 4.72853 14.279
-0.68069 0.94935 -0.03506 268.66563 0 -4.10958 -31.63332 6.03689 3.72521 -19.5044 -2.24051 1.06328 52.4985 -21.4818 39.10244 34.96386 20.80943 46.63065 -12.30387 52.25634 21.40188 -51.25091 40.17325 -136.93089 -60.45788 10.03638 -8.3241 10.55502 0.24716 5.15918 -3.22817 -4.00373 -13.30774 -12.68668 11.27916 15.41643 0.32661 0.05226 4.56425 14.97749
-0.68085 0.94945 -0.03418 268.78385 0 -3.95448 -32.46292 5.95082 3.47483 -19.45378 -2.31815 1.28668 52.57144 -21.61997 39.2169 35.09755 20.66033 47.02522 -12.31345 52.06441 21.40199 -51.18198 40.23033 -136.93629 -60.47674 10.03528 -8.42828 10.42581 0.20743 5.25087 -3.17776 -3.99405 -13.39376 -12.83139 11.19621 14.02606 0.54234 -0.20077 4.36938 15.96265
-0.68097 0.94955 -0.03308 268.90071 0 -3.80023 -33.22993 5.88442 3.31595 -19.42133 -2.38129 1.41901 52.64551 -21.72154 39.27768 35.1945 20.55588 47.29267 -12.32078 51.92891 21.37762 -51.1098 40.25216 -136.90743 -60.44407 10.02866 -8.53521 10.29374 0.14446 5.32063 -3.11065 -4.00671 -13.44565 -12.93161 11.11212 13.21674 0.65725 -0.3698 4.23387 16.40762
-0.68099 0.94963 -0.03143 269.00946 0 -3.65058 -33.84388 5.86508 3.43794 -19.42211 -2.38768 1.2851 52.70224 -21.75131 39.20344 35.22035 20.52562 47.26008 -12.33122 51.91383 21.30401 -51.02649 40.2184 -136.80131 -60.34379 10.00721 -8.64645 10.15787 0.01251 5.33421 -3.00625 -4.08597 -13.39976 -12.92909 11.01702 14.19335 0.54595 -0.31426 4.264 15.20643
-0.68097 0.94972 -0.02955 269.11739 0 -3.50137 -34.39392 5.86485 3.65165 -19.43904 -2.37857 1.05982 52.75679 -21.74362 39.07408 35.20871 20.54096 47.09624 -12.33948 51.95314 21.20287 -50.93792 40.14525 -136.65665 -60.18333 9.97992 -8.76116 10.01862 -0.14272 5.32636 -2.8854 -4.1866 -13.31932 -12.87681 10.92071 15.74186 0.32354 -0.17268 4.35542 13.47564
-0.68096 0.94981 -0.02775 269.22834 0 -3.35024 -34.9668 5.85682 3.81431 -19.44947 -2.37945 0.88116 52.812 -21.74463 38.9639 35.2056 20.54879 46.97456 -12.34623 51.97316 21.10426 -50.85075 40.072 -136.52022 -60.01856 9.95465 -8.87652 9.8786 -0.28579 5.32853 -2.77025 -4.27342 -13.25539 -12.8368 10.82645 16.94862 0.12767 -0.06813 4.42073 12.06137
-0.68097 0.94989 -0.02607 269.32843 0 -3.2061 -35.56546 5.84615 4.01406 -19.45919 -2.36965 0.68234 52.87205 -21.78005 38.87762 35.23736 20.50201 46.92794 -12.3627 51.97456 21.04876 -50.77151 40.07526 -136.42738 -59.99199 9.93214 -8.98239 9.7481 -0.43522 5.32911 -2.66159 -4.37719 -13.18858 -12.84689 10.72592 18.48787 0.04374 0.0246 4.47718 10.33679
-0.68094 0.94998 -0.02408 269.45058 0 -3.04788 -36.09456 5.84487 4.15959 -19.47266 -2.37777 0.50305 52.91984 -21.73387 38.72903 35.18682 20.58174 46.68959 -12.35879 52.02569 20.89542 -50.67044 39.90756 -136.22898 -59.65479 9.90246 -9.10896 9.5972 -0.577 5.32785 -2.53599 -4.45131 -13.11922 -12.73265 10.63875 19.47902 -0.31446 0.16655 4.56789 9.12585
